<svg width="99" height="99" viewBox="0 0 99 99" fill="none" xmlns="http://www.w3.org/2000/svg">
<g id="vuesax/linear/sms-notification">
<g id="vuesax/linear/sms-notification_2">
<g id="sms-notification">
<path id="Vector" d="M90.75 43.3125V63.9375C90.75 78.375 82.5 84.5625 70.125 84.5625H28.875C16.5 84.5625 8.25 78.375 8.25 63.9375V35.0625C8.25 20.625 16.5 14.4375 28.875 14.4375H57.75" stroke="#FF5E03" stroke-width="1.5" stroke-miterlimit="10" stroke-linecap="round" stroke-linejoin="round"/>
<path id="Vector_2" d="M28.875 37.125L41.7863 47.4375C46.035 50.82 53.0063 50.82 57.255 47.4375L62.1225 43.56" stroke="#FF5E03" stroke-width="1.5" stroke-miterlimit="10" stroke-linecap="round" stroke-linejoin="round"/>
<path id="Vector_3" d="M80.4375 33C86.1329 33 90.75 28.3829 90.75 22.6875C90.75 16.9921 86.1329 12.375 80.4375 12.375C74.7421 12.375 70.125 16.9921 70.125 22.6875C70.125 28.3829 74.7421 33 80.4375 33Z" stroke="#FF5E03" stroke-width="1.5" stroke-miterlimit="10" stroke-linecap="round" stroke-linejoin="round"/>
</g>
</g>
</g>
</svg>
